<svg width="900" height="700" viewBox="0 0 900 700" fill="none" xmlns="http://www.w3.org/2000/svg">
  <rect width="900" height="700" rx="40" fill="#FFF8EE"/>
  <rect x="80" y="90" width="740" height="520" rx="30" fill="url(#paint0_linear)"/>
  <ellipse cx="660" cy="240" rx="120" ry="120" fill="#F5D790"/>
  <ellipse cx="250" cy="500" rx="170" ry="150" fill="#E8C07D"/>
  <rect x="280" y="230" width="220" height="220" rx="40" fill="#7B4F2F"/>
  <rect x="350" y="170" width="150" height="120" rx="24" fill="#5D4037"/>
  <rect x="385" y="205" width="90" height="70" rx="14" fill="#8B6F47"/>
  <rect x="521" y="283" width="140" height="120" rx="24" fill="#FFFFFF" fill-opacity="0.9"/>
  <rect x="540" y="304" width="90" height="18" rx="9" fill="#8B6F47"/>
  <rect x="540" y="336" width="70" height="14" rx="7" fill="#D4AF37"/>
  <rect x="220" y="420" width="180" height="80" rx="20" fill="#FFFFFF" fill-opacity="0.86"/>
  <path d="M252 474C275 440 308 440 331 474" stroke="#5D4037" stroke-width="12" stroke-linecap="round"/>
  <path d="M250 458C264 441 292 441 306 458" stroke="#8B6F47" stroke-width="8" stroke-linecap="round"/>
  <rect x="560" y="460" width="150" height="60" rx="18" fill="#5D4037"/>
  <path d="M600 490C613 475 637 475 650 490" stroke="#FFF8EE" stroke-width="10" stroke-linecap="round"/>
  <defs>
    <linearGradient id="paint0_linear" x1="70" y1="80" x2="820" y2="600" gradientUnits="userSpaceOnUse">
      <stop stop-color="#F3E0C4"/>
      <stop offset="1" stop-color="#D8B376"/>
    </linearGradient>
  </defs>
</svg>
