<svg width="160" height="160" viewBox="0 0 160 160" fill="none" xmlns="http://www.w3.org/2000/svg">
  <rect width="160" height="160" rx="40" fill="#FFF8EE"/>
  <circle cx="80" cy="80" r="54" fill="#8B6F47"/>
  <path d="M80 38C60 38 44 54 44 74C44 94 60 110 80 110C100 110 116 94 116 74C116 54 100 38 80 38Z" fill="#5D4037"/>
  <path d="M58 70C58 57 68 47 81 47H84C97 47 107 57 107 70C107 83 97 93 84 93H81C68 93 58 83 58 70Z" fill="#D4AF37"/>
  <path d="M58 70C58 57 68 47 81 47H84C97 47 107 57 107 70C107 83 97 93 84 93H81C68 93 58 83 58 70Z" fill="white" fill-opacity="0.2"/>
  <path d="M66 60C66 58 67.8 56.2 70 56.2H95C97.2 56.2 99 58 99 60V64H66V60Z" fill="#FFF8EE"/>
  <path d="M65 112H95" stroke="#D4AF37" stroke-width="8" stroke-linecap="round"/>
  <path d="M76 120H84" stroke="#D4AF37" stroke-width="6" stroke-linecap="round"/>
</svg>
